<?xml version="1.0" encoding="UTF-8" standalone="no"?>
<!DOCTYPE svg PUBLIC "-//W3C//DTD SVG 1.1//EN" "http://www.w3.org/Graphics/SVG/1.1/DTD/svg11.dtd">
<svg width="100%" height="100%" viewBox="0 0 1050 571" version="1.1" xmlns="http://www.w3.org/2000/svg" xmlns:xlink="http://www.w3.org/1999/xlink" xml:space="preserve" xmlns:serif="http://www.serif.com/" style="fill-rule:evenodd;clip-rule:evenodd;stroke-linejoin:round;stroke-miterlimit:2;">
    <g transform="matrix(4.16667,0,0,4.16667,0,0)">
        <g>
            <path d="M209.157,15.706C196.851,4.52 184.044,-3.148 179.261,1.63C160.53,20.33 166.875,89.875 175.883,103.719C175.853,103.664 175.826,103.608 175.806,103.553C171.403,92.235 187.78,36.156 209.157,15.706Z" style="fill:rgb(239,231,100);fill-rule:nonzero;"/>
            <path d="M218.165,9.541C215.097,10.783 212.083,12.91 209.157,15.706C224.189,29.369 238.483,48.277 236.5,56.16C231.031,77.876 202.127,99.055 180.9,105.348C180.283,105.529 179.735,105.723 179.212,105.723C179.122,105.723 179.029,105.715 178.933,105.702C178.931,105.702 178.93,105.703 178.93,105.703C178.93,105.703 180.164,105.855 181.479,105.944C183.291,106.07 185.786,106.162 187.415,106.162C209.103,106.162 237.802,97.852 249.735,82.015C258.618,70.209 232.094,3.885 218.165,9.541Z" style="fill:rgb(239,231,100);fill-rule:nonzero;"/>
            <path d="M180.9,105.348C202.127,99.055 231.031,77.876 236.5,56.16C238.483,48.277 224.189,29.369 209.157,15.706C187.78,36.156 171.403,92.235 175.806,103.553C175.826,103.608 175.853,103.664 175.883,103.719C176.364,104.643 177.816,105.563 178.933,105.702C179.029,105.715 179.122,105.723 179.212,105.723C179.735,105.723 180.283,105.529 180.9,105.348Z" style="fill:rgb(200,213,68);fill-rule:nonzero;"/>
            <path d="M228.705,52.763C229.224,54.882 227.921,57.018 225.804,57.527C223.688,58.041 221.551,56.739 221.041,54.621C220.524,52.501 221.828,50.368 223.943,49.857C226.063,49.344 228.197,50.648 228.705,52.763Z" style="fill:rgb(47,78,91);fill-rule:nonzero;"/>
        </g>
        <g>
            <path d="M4.39,98.63C3.594,98.63 2.662,98.674 2.091,98.696L2.091,110.524C2.662,110.615 3.501,110.659 4.116,110.659C7.71,110.659 10.235,108.795 10.235,104.633C10.235,100.721 8.37,98.63 4.39,98.63ZM3.89,112.434C2.342,112.434 1.137,112.344 0,112.344L0,97.014C1.183,96.993 2.912,96.923 4.595,96.923C9.507,96.923 12.44,99.221 12.44,104.496C12.44,109.751 8.915,112.434 3.89,112.434Z" style="fill:white;fill-rule:nonzero;"/>
            <path d="M20.452,107.135C16.517,107.135 15.654,108.341 15.654,109.365C15.654,110.319 16.334,110.932 17.381,110.932C19.224,110.932 20.452,109.113 20.452,107.34L20.452,107.135ZM20.565,112.344C20.565,111.547 20.565,110.729 20.679,110.09L20.634,110.09C20.089,111.48 18.656,112.549 16.791,112.549C14.925,112.549 13.651,111.547 13.651,109.751C13.651,107.272 16.177,105.702 20.452,105.702L20.452,104.862C20.452,103.291 19.839,102.447 17.974,102.447C16.906,102.447 15.538,102.79 14.562,103.383L14.355,101.631C15.448,101.176 16.813,100.813 18.314,100.813C21.566,100.813 22.5,102.336 22.5,104.588L22.5,109.092C22.5,110.158 22.521,111.365 22.544,112.344L20.565,112.344Z" style="fill:white;fill-rule:nonzero;"/>
            <path d="M32.445,112.344L32.445,105.043C32.445,103.451 32.014,102.518 30.513,102.518C28.648,102.518 27.307,104.406 27.307,106.908L27.307,112.344L25.259,112.344L25.259,101.039L27.238,101.039C27.238,101.699 27.194,102.746 27.054,103.405L27.102,103.426C27.761,101.858 29.148,100.813 31.084,100.813C33.676,100.813 34.495,102.428 34.495,104.429L34.495,112.344L32.445,112.344Z" style="fill:white;fill-rule:nonzero;"/>
            <path d="M51.354,112.344L51.354,105.09C51.354,103.518 50.99,102.518 49.512,102.518C47.897,102.518 46.349,104.223 46.349,106.953L46.349,112.344L44.324,112.344L44.324,105.065C44.324,103.656 44.031,102.518 42.483,102.518C40.754,102.518 39.324,104.36 39.324,106.953L39.324,112.344L37.274,112.344L37.274,101.039L39.255,101.039C39.255,101.699 39.208,102.722 39.073,103.405L39.117,103.426C39.778,101.836 41.233,100.813 43.053,100.813C45.441,100.813 46.077,102.473 46.168,103.383C46.646,102.313 47.851,100.813 50.036,100.813C52.172,100.813 53.401,101.973 53.401,104.521L53.401,112.344L51.354,112.344Z" style="fill:white;fill-rule:nonzero;"/>
            <path d="M62.375,107.135C58.44,107.135 57.575,108.341 57.575,109.365C57.575,110.319 58.259,110.932 59.304,110.932C61.145,110.932 62.375,109.113 62.375,107.34L62.375,107.135ZM62.488,112.344C62.488,111.547 62.488,110.729 62.603,110.09L62.557,110.09C62.009,111.48 60.579,112.549 58.711,112.549C56.848,112.549 55.574,111.547 55.574,109.751C55.574,107.272 58.099,105.702 62.375,105.702L62.375,104.862C62.375,103.291 61.758,102.447 59.895,102.447C58.825,102.447 57.462,102.79 56.483,103.383L56.278,101.631C57.37,101.176 58.735,100.813 60.235,100.813C63.489,100.813 64.42,102.336 64.42,104.588L64.42,109.092C64.42,110.158 64.444,111.365 64.467,112.344L62.488,112.344Z" style="fill:white;fill-rule:nonzero;"/>
            <path d="M72.774,102.838C70.386,102.428 69.248,104.178 69.248,107.795L69.248,112.344L67.201,112.344L67.201,101.039L69.178,101.039C69.178,101.744 69.112,102.79 68.93,103.725L68.975,103.725C69.452,102.154 70.613,100.585 72.864,100.836L72.774,102.838Z" style="fill:white;fill-rule:nonzero;"/>
            <path d="M80.597,112.344L76.412,106.521L76.412,112.344L74.366,112.344L74.366,95.741L76.412,95.741L76.412,105.996L80.394,101.039L82.873,101.039L78.527,106.201L83.213,112.344L80.597,112.344Z" style="fill:white;fill-rule:nonzero;"/>
            <path d="M86.944,112.549C86.1,112.549 85.261,112.481 84.554,112.344L84.623,110.524C85.328,110.752 86.239,110.91 87.102,110.91C88.604,110.91 89.626,110.227 89.626,109.18C89.626,106.658 84.372,108.203 84.372,104.223C84.372,102.313 85.942,100.836 88.9,100.836C89.582,100.836 90.378,100.926 91.059,101.063L91.015,102.77C90.31,102.539 89.49,102.404 88.74,102.404C87.239,102.404 86.488,103.041 86.488,104.02C86.488,106.498 91.764,105.156 91.764,108.953C91.764,111 89.945,112.549 86.944,112.549Z" style="fill:white;fill-rule:nonzero;"/>
            <path d="M41.877,135.088L36.034,125.58C35.327,124.465 34.783,123.418 34.282,122.396C34.372,124.033 34.439,127.719 34.439,130.151L34.439,135.088L32.393,135.088L32.393,119.735L35.146,119.735L40.853,128.946C41.537,130.062 42.173,131.221 42.743,132.313C42.65,130.424 42.583,126.65 42.583,124.102L42.583,119.735L44.606,119.735L44.606,135.088L41.877,135.088Z" style="fill:white;fill-rule:nonzero;"/>
            <path d="M53.478,129.879C49.542,129.879 48.678,131.086 48.678,132.108C48.678,133.063 49.36,133.678 50.408,133.678C52.25,133.678 53.478,131.858 53.478,130.082L53.478,129.879ZM53.592,135.088C53.592,134.293 53.592,133.473 53.704,132.835L53.66,132.835C53.113,134.224 51.681,135.291 49.816,135.291C47.95,135.291 46.677,134.293 46.677,132.495C46.677,130.016 49.202,128.446 53.478,128.446L53.478,127.604C53.478,126.036 52.864,125.194 50.999,125.194C49.929,125.194 48.564,125.535 47.585,126.127L47.382,124.374C48.473,123.92 49.838,123.557 51.339,123.557C54.591,123.557 55.524,125.08 55.524,127.332L55.524,131.834C55.524,132.904 55.545,134.11 55.569,135.088L53.592,135.088Z" style="fill:white;fill-rule:nonzero;"/>
            <path d="M62.167,135.268C59.845,135.268 59.141,134.316 59.141,131.881L59.141,125.377L56.821,125.377L56.821,123.783L59.141,123.783L59.141,120.123L61.187,119.553L61.187,123.783L64.349,123.783L64.349,125.377L61.187,125.377L61.187,131.153C61.187,133.018 61.529,133.52 62.803,133.52C63.326,133.52 63.894,133.428 64.349,133.315L64.349,135.041C63.711,135.178 62.893,135.268 62.167,135.268Z" style="fill:white;fill-rule:nonzero;"/>
            <path d="M73.787,135.088C73.787,134.427 73.856,133.383 73.969,132.723L73.922,132.698C73.263,134.27 71.876,135.315 69.944,135.315C67.351,135.315 66.554,133.699 66.554,131.699L66.554,123.783L68.579,123.783L68.579,131.086C68.579,132.676 69.033,133.61 70.512,133.61C72.376,133.61 73.743,131.721 73.743,129.219L73.743,123.783L75.767,123.783L75.767,135.088L73.787,135.088Z" style="fill:white;fill-rule:nonzero;"/>
            <path d="M84.066,125.58C81.679,125.172 80.542,126.924 80.542,130.538L80.542,135.088L78.495,135.088L78.495,123.783L80.474,123.783C80.474,124.488 80.407,125.535 80.225,126.468L80.269,126.468C80.748,124.899 81.906,123.327 84.158,123.58L84.066,125.58Z" style="fill:white;fill-rule:nonzero;"/>
            <path d="M93.836,120.259C93.313,120.074 92.721,120.008 92.177,120.008C90.561,120.008 89.856,120.919 89.856,122.919L89.856,123.783L92.994,123.783L92.994,125.377L89.856,125.377L89.856,135.088L87.808,135.088L87.808,125.377L85.49,125.377L85.49,123.783L87.808,123.783L87.808,122.944C87.808,119.826 89.334,118.348 92.153,118.348C92.791,118.348 93.404,118.416 94.018,118.553L93.836,120.259Z" style="fill:white;fill-rule:nonzero;"/>
            <path d="M100.095,125.58C97.707,125.172 96.569,126.924 96.569,130.538L96.569,135.088L94.521,135.088L94.521,123.783L96.5,123.783C96.5,124.488 96.433,125.535 96.25,126.468L96.296,126.468C96.772,124.899 97.931,123.327 100.186,123.58L100.095,125.58Z" style="fill:white;fill-rule:nonzero;"/>
            <path d="M106.145,125.08C104.667,125.08 103.619,126.194 103.395,127.854L108.668,127.854C108.714,126.194 107.735,125.08 106.145,125.08ZM110.692,129.312L103.302,129.312C103.211,132.335 104.461,133.631 106.871,133.631C108.03,133.631 109.261,133.36 110.169,132.927L110.353,134.587C109.261,135.041 107.941,135.291 106.531,135.291C103.052,135.291 101.187,133.473 101.187,129.495C101.187,126.102 103.026,123.58 106.234,123.58C109.419,123.58 110.76,125.74 110.76,128.332C110.76,128.607 110.739,128.924 110.692,129.312Z" style="fill:white;fill-rule:nonzero;"/>
            <path d="M120.04,125.488C119.358,125.307 118.676,125.238 118.039,125.238C115.878,125.238 114.445,126.534 114.445,129.789C114.445,132.222 115.242,133.61 116.947,133.61C118.995,133.61 120.04,131.221 120.04,129.243L120.04,125.488ZM120.108,135.088C120.108,134.451 120.154,133.449 120.292,132.791L120.247,132.768C119.61,134.293 118.22,135.291 116.447,135.291C113.673,135.291 112.284,133.268 112.284,129.972C112.284,126.012 114.56,123.623 118.129,123.623C118.744,123.623 119.358,123.67 120.04,123.738L120.04,118.485L122.089,118.485L122.089,135.088L120.108,135.088Z" style="fill:white;fill-rule:nonzero;"/>
            <path d="M132.118,135.088L132.118,127.785C132.118,126.194 131.685,125.261 130.185,125.261C128.32,125.261 126.979,127.15 126.979,129.651L126.979,135.088L124.93,135.088L124.93,123.783L126.909,123.783C126.909,124.445 126.864,125.488 126.727,126.15L126.775,126.172C127.433,124.602 128.817,123.557 130.752,123.557C133.347,123.557 134.164,125.172 134.164,127.172L134.164,135.088L132.118,135.088Z" style="fill:white;fill-rule:nonzero;"/>
            <path d="M136.918,135.088L136.918,123.783L138.965,123.783L138.965,135.088L136.918,135.088ZM137.942,121.92C137.189,121.92 136.576,121.327 136.576,120.576C136.576,119.85 137.189,119.258 137.942,119.258C138.692,119.258 139.308,119.826 139.308,120.576C139.308,121.304 138.692,121.92 137.942,121.92Z" style="fill:white;fill-rule:nonzero;"/>
            <path d="M148.844,135.088L148.844,127.785C148.844,126.194 148.411,125.261 146.912,125.261C145.046,125.261 143.703,127.15 143.703,129.651L143.703,135.088L141.657,135.088L141.657,123.783L143.635,123.783C143.635,124.445 143.589,125.488 143.453,126.15L143.498,126.172C144.158,124.602 145.546,123.557 147.478,123.557C150.071,123.557 150.89,125.172 150.89,127.172L150.89,135.088L148.844,135.088Z" style="fill:white;fill-rule:nonzero;"/>
            <path d="M167.449,135.291C166.608,135.291 165.765,135.223 165.06,135.088L165.128,133.268C165.834,133.496 166.741,133.656 167.606,133.656C169.109,133.656 170.132,132.973 170.132,131.926C170.132,129.403 164.877,130.95 164.877,126.968C164.877,125.058 166.447,123.58 169.403,123.58C170.086,123.58 170.882,123.67 171.564,123.807L171.519,125.512C170.814,125.285 169.996,125.149 169.244,125.149C167.742,125.149 166.993,125.785 166.993,126.764C166.993,129.243 172.27,127.901 172.27,131.699C172.27,133.746 170.45,135.291 167.449,135.291Z" style="fill:white;fill-rule:nonzero;"/>
            <path d="M181.685,120.259C181.163,120.074 180.571,120.008 180.025,120.008C178.41,120.008 177.706,120.919 177.706,122.919L177.706,123.783L180.843,123.783L180.843,125.377L177.706,125.377L177.706,135.088L175.659,135.088L175.659,125.377L173.34,125.377L173.34,123.783L175.659,123.783L175.659,122.944C175.659,119.826 177.182,118.348 180.002,118.348C180.639,118.348 181.254,118.416 181.867,118.553L181.685,120.259Z" style="fill:white;fill-rule:nonzero;"/>
            <path d="M186.599,125.285C184.96,125.285 183.414,126.534 183.414,129.334C183.414,132.063 184.53,133.565 186.599,133.565C188.279,133.565 189.735,132.244 189.735,129.357C189.735,126.786 188.691,125.285 186.599,125.285ZM186.348,135.291C183.277,135.291 181.274,133.52 181.274,129.537C181.274,126.218 183.369,123.58 186.78,123.58C189.668,123.58 191.875,125.172 191.875,129.243C191.875,132.654 189.691,135.291 186.348,135.291Z" style="fill:white;fill-rule:nonzero;"/>
            <path d="M199.835,125.58C197.446,125.172 196.311,126.924 196.311,130.538L196.311,135.088L194.264,135.088L194.264,123.783L196.242,123.783C196.242,124.488 196.172,125.535 195.991,126.468L196.037,126.468C196.514,124.899 197.675,123.327 199.928,123.58L199.835,125.58Z" style="fill:white;fill-rule:nonzero;"/>
            <path d="M205.772,125.08C204.292,125.08 203.246,126.194 203.019,127.854L208.294,127.854C208.341,126.194 207.364,125.08 205.772,125.08ZM210.319,129.312L202.93,129.312C202.839,132.335 204.088,133.631 206.498,133.631C207.659,133.631 208.888,133.36 209.797,132.927L209.978,134.587C208.888,135.041 207.568,135.291 206.157,135.291C202.679,135.291 200.814,133.473 200.814,129.495C200.814,126.102 202.655,123.58 205.862,123.58C209.046,123.58 210.388,125.74 210.388,128.332C210.388,128.607 210.366,128.924 210.319,129.312Z" style="fill:white;fill-rule:nonzero;"/>
            <path d="M219.871,135.088L219.871,127.785C219.871,126.194 219.44,125.261 217.938,125.261C216.075,125.261 214.733,127.15 214.733,129.651L214.733,135.088L212.685,135.088L212.685,123.783L214.663,123.783C214.663,124.445 214.619,125.488 214.482,126.15L214.528,126.172C215.187,124.602 216.575,123.557 218.509,123.557C221.101,123.557 221.92,125.172 221.92,127.172L221.92,135.088L219.871,135.088Z" style="fill:white;fill-rule:nonzero;"/>
            <path d="M224.625,135.088L224.625,123.783L226.675,123.783L226.675,135.088L224.625,135.088ZM225.648,121.92C224.9,121.92 224.285,121.327 224.285,120.576C224.285,119.85 224.9,119.258 225.648,119.258C226.4,119.258 227.015,119.826 227.015,120.576C227.015,121.304 226.4,121.92 225.648,121.92Z" style="fill:white;fill-rule:nonzero;"/>
            <path d="M236.591,135.088L236.591,127.785C236.591,126.194 236.157,125.261 234.655,125.261C232.79,125.261 231.449,127.15 231.449,129.651L231.449,135.088L229.402,135.088L229.402,123.783L231.38,123.783C231.38,124.445 231.334,125.488 231.199,126.15L231.244,126.172C231.904,124.602 233.292,123.557 235.223,123.557C237.818,123.557 238.638,125.172 238.638,127.172L238.638,135.088L236.591,135.088Z" style="fill:white;fill-rule:nonzero;"/>
            <path d="M160.556,127.74C160.556,126.08 159.556,125.104 157.826,125.104C156.03,125.104 154.961,126.218 154.961,127.74C154.961,129.424 155.985,130.335 157.759,130.335C159.465,130.335 160.556,129.403 160.556,127.74ZM163.536,125.399L161.625,125.399C162.216,125.854 162.581,126.65 162.581,127.604C162.581,130.04 160.897,131.811 157.668,131.811C157.189,131.811 156.621,131.744 156.234,131.676C155.736,131.881 155.508,132.244 155.508,132.61C155.508,133.244 156.076,133.496 157.439,133.496L159.533,133.496C161.989,133.496 163.355,134.676 163.355,136.726C163.355,136.819 163.348,136.908 163.342,137L161.326,137C161.326,136.99 161.329,136.984 161.329,136.975C161.329,135.883 160.556,135.201 158.964,135.201L156.076,135.201C155.176,135.201 154.447,134.813 153.948,134.367C153.568,134.03 153.348,133.603 153.348,133.063C153.348,132.267 153.823,131.539 154.62,131.176C153.505,130.538 152.961,129.377 152.961,127.946C152.961,125.557 154.757,123.58 157.919,123.58C158.578,123.58 159.101,123.649 159.69,123.783L163.536,123.783L163.536,125.399Z" style="fill:white;fill-rule:nonzero;"/>
            <path d="M242.594,127.74C242.594,129.424 243.616,130.335 245.391,130.335C247.097,130.335 248.188,129.403 248.188,127.74C248.188,126.08 247.187,125.104 245.459,125.104C243.663,125.104 242.594,126.218 242.594,127.74ZM250.973,137L248.958,137C248.958,136.99 248.962,136.984 248.962,136.975C248.962,135.883 248.188,135.201 246.597,135.201L243.707,135.201C242.807,135.201 242.081,134.813 241.58,134.367C241.201,134.03 240.979,133.603 240.979,133.063C240.979,132.267 241.456,131.539 242.254,131.176C241.138,130.538 240.593,129.377 240.593,127.946C240.593,125.557 242.389,123.58 245.552,123.58C246.209,123.58 246.732,123.649 247.324,123.783L251.167,123.783L251.167,125.399L249.258,125.399C249.849,125.854 250.214,126.65 250.214,127.604C250.214,130.04 248.53,131.811 245.301,131.811C244.823,131.811 244.253,131.744 243.867,131.676C243.366,131.881 243.141,132.244 243.141,132.61C243.141,133.244 243.707,133.496 245.073,133.496L247.165,133.496C249.623,133.496 250.987,134.676 250.987,136.726C250.987,136.819 250.979,136.908 250.973,137Z" style="fill:white;fill-rule:nonzero;"/>
        </g>
    </g>
</svg>
